1.9Hzhigh3min_grf.mot
version=1
nRows=10
nColumns 19
inDegrees=yes
endheader
time	1_ground_force_vx	1_ground_force_vy	1_ground_force_vz	1_ground_force_px	1_ground_force_py	1_ground_force_pz	1_ground_torque_x	1_ground_torque_y	1_ground_torque_z	2_ground_force_vx	2_ground_force_vy	2_ground_force_vz	2_ground_force_px	2_ground_force_py	2_ground_force_pz	2_ground_torque_x	2_ground_torque_y	2_ground_torque_z
            1.253500	            3.878196	           45.625466	           -3.895288	           -0.255199	            0.006208	           -0.402753	            0.005429	            0.063868	           -0.005453	            2.129432	           19.723202	           -3.121742	           -0.268485	            0.005404	           -0.666738	            0.001385	            0.012826	           -0.002030
            1.254000	            3.740685	           44.904573	           -3.943894	           -0.256368	            0.006212	           -0.403779	            0.011367	            0.136450	           -0.011984	            2.038329	           18.986773	           -3.265115	           -0.263348	            0.005409	           -0.662869	            0.008001	            0.074529	           -0.012817
            1.254500	            3.787459	           42.920677	           -3.723231	           -0.253249	            0.006214	           -0.404104	            0.020187	            0.228767	           -0.019845	            1.950029	           17.512578	           -3.082619	           -0.266028	            0.005386	           -0.659257	            0.007453	            0.066934	           -0.011782
            1.255000	            3.604431	           41.658585	           -3.682331	           -0.255265	            0.006213	           -0.403935	            0.006768	            0.078224	           -0.006914	            2.047778	           16.407525	           -2.945817	           -0.269388	            0.005385	           -0.662306	            0.008963	            0.071819	           -0.012894
            1.255500	            3.422101	           40.935914	           -3.318120	           -0.254064	            0.006211	           -0.403480	            0.004649	            0.055614	           -0.004508	            1.721137	           16.038211	           -2.993920	           -0.264426	            0.005414	           -0.665539	            0.006829	            0.063639	           -0.011880
            1.256000	            3.194207	           39.311709	           -2.911805	           -0.254846	            0.006216	           -0.404540	           -0.001474	           -0.018140	            0.001344	            1.912463	           14.934500	           -3.138726	           -0.269310	            0.005339	           -0.649267	            0.007437	            0.058073	           -0.012205
            1.256500	            3.377564	           38.771144	           -2.960435	           -0.252866	            0.006212	           -0.403631	            0.004115	            0.047238	           -0.003607	            2.008177	           14.382226	           -3.093809	           -0.261382	            0.005410	           -0.661201	           -0.002528	           -0.018103	            0.003894
            1.257000	            3.194845	           37.688728	           -2.781194	           -0.255534	            0.006203	           -0.401607	            0.007778	            0.091749	           -0.006771	            1.819428	           14.750013	           -3.139343	           -0.261723	            0.005423	           -0.665370	           -0.000477	           -0.003864	            0.000822
            1.257500	            3.102689	           37.148897	           -3.012565	           -0.252475	            0.006193	           -0.399040	            0.004714	            0.056442	           -0.004577	            1.872300	           13.092513	           -3.051421	           -0.275078	            0.005385	           -0.668164	            0.003261	            0.022805	           -0.005315
            1.258000	            3.149298	           36.066329	           -2.788036	           -0.257057	            0.006186	           -0.397748	            0.009174	            0.105068	           -0.008122	            1.826074	           12.908530	           -3.145914	           -0.262778	            0.005401	           -0.660138	            0.001221	            0.008630	           -0.002103
